<svg width="162" height="45" viewBox="0 0 162 45" fill="none" xmlns="http://www.w3.org/2000/svg">
<g clip-path="url(#clip0_85_17)">
<path fill-rule="evenodd" clip-rule="evenodd" d="M8.5903 42.578L5.4713 44.4772C3.06672 45.9235 0 44.1985 0 41.3932V3.61668C0 0.793903 3.06672 -0.931124 5.4713 0.532538L15.8912 6.85765C15.4207 6.77052 14.9328 6.71825 14.4275 6.71825C9.47895 6.71825 5.45388 10.6214 5.20993 15.5002H9.14788C9.7229 15.5002 10.2979 15.9707 10.3327 16.5631C10.3676 17.2078 9.84487 17.748 9.20015 17.748H5.20993V19.9435H9.20015C9.84487 19.9435 10.3676 20.4662 10.3327 21.1283C10.2979 21.7382 9.75775 22.1912 9.14788 22.1912H5.20993V24.3693H9.14788C9.7229 24.3693 10.2979 24.8572 10.3327 25.4497C10.3676 26.0943 9.84487 26.6345 9.20015 26.6345H5.20993C5.45388 31.5133 9.47895 35.399 14.4275 35.399C14.5843 35.399 14.7412 35.3817 14.9154 35.3817L13.051 37.3855V39.8772L12.8942 39.9643H11.3259C9.8623 39.9643 8.66 41.1317 8.5903 42.578ZM36.609 25.589L15.8041 38.2043V35.2945C20.0905 34.6498 23.4187 31.0428 23.6277 26.6345H19.6375C18.9928 26.6345 18.4875 26.0943 18.5048 25.4497C18.5397 24.8572 19.1147 24.3693 19.7072 24.3693H23.6452V22.1912H19.6375C18.9928 22.1912 18.4875 21.6512 18.5048 21.0063C18.5397 20.3965 19.0973 19.9435 19.7072 19.9435H23.6452V17.748H19.7072C19.1147 17.748 18.5397 17.2775 18.5048 16.6852C18.4875 16.0404 18.9928 15.5002 19.6375 15.5002H23.6277C23.5405 13.601 22.8785 11.8585 21.8155 10.4297L36.609 19.4207C38.9265 20.8147 38.9265 24.1777 36.609 25.589Z" fill="url(#paint0_linear_85_17)"/>
<path style="mix-blend-mode:multiply" fill-rule="evenodd" clip-rule="evenodd" d="M14.9154 35.3817L13.051 37.3855V39.8772L12.8942 39.9643H11.3259C9.8623 39.9643 8.66 41.1317 8.5903 42.578L5.4713 44.4772C3.06672 45.9235 0 44.1985 0 41.3932V3.61668C0 0.793903 3.06672 -0.931124 5.4713 0.532538L15.8912 6.85765C15.4207 6.77052 14.9328 6.71825 14.4275 6.71825C9.47895 6.71825 5.45388 10.6214 5.20993 15.5002H9.14788C9.7229 15.5002 10.2979 15.9707 10.3327 16.5631C10.3676 17.2078 9.84487 17.748 9.20015 17.748H5.20993V19.9435H9.20015C9.84487 19.9435 10.3676 20.4662 10.3327 21.1283C10.2979 21.7382 9.75775 22.1912 9.14788 22.1912H5.20993V24.3693H9.14788C9.7229 24.3693 10.2979 24.8572 10.3327 25.4497C10.3676 26.0943 9.84487 26.6345 9.20015 26.6345H5.20993C5.45388 31.5133 9.47895 35.399 14.4275 35.399C14.5844 35.399 14.7412 35.3817 14.9154 35.3817ZM26.9383 31.4437L15.8041 38.2043V35.2945C20.0905 34.6498 23.4187 31.0428 23.6277 26.6345H19.6375C18.9928 26.6345 18.4875 26.0943 18.5048 25.4497C18.5397 24.8572 19.1147 24.3693 19.7072 24.3693H23.6452V22.1912H19.6375C18.9928 22.1912 18.4875 21.6512 18.5048 21.0063C18.5397 20.3965 19.0973 19.9435 19.7072 19.9435H23.6452V18.1313C24.464 20.0828 25.161 22.1042 25.7187 24.195C26.3808 26.7042 26.7815 29.1262 26.9383 31.4437ZM19.6375 15.5002H22.4253C22.7972 16.2321 23.1457 16.9813 23.4708 17.748H19.7072C19.1147 17.748 18.5397 17.2775 18.5048 16.6852C18.4875 16.0404 18.9928 15.5002 19.6375 15.5002Z" fill="url(#paint1_linear_85_17)"/>
<path style="mix-blend-mode:screen" fill-rule="evenodd" clip-rule="evenodd" d="M5.20993 19.1593V17.748H9.20015C9.84487 17.748 10.3676 17.2078 10.3328 16.5631C10.2979 15.9707 9.7229 15.5002 9.14788 15.5002H5.20993C5.45388 10.6213 9.47895 6.71825 14.4275 6.71825C14.9328 6.71825 15.4207 6.77052 15.8912 6.85765L5.4713 0.532538C3.06672 -0.931124 0 0.793903 0 3.61668V14.8729C1.53336 16.4237 3.27582 17.8525 5.20993 19.1593ZM10.3328 21.1283C10.3676 20.4662 9.84487 19.9435 9.20015 19.9435H6.41223C7.53902 20.6405 8.71808 21.291 9.94942 21.895C10.1759 21.7033 10.3153 21.4245 10.3328 21.1283ZM36.609 19.4207L21.8155 10.4297C22.8785 11.8585 23.5405 13.6009 23.6277 15.5002H19.6375C18.9928 15.5002 18.4875 16.0404 18.5048 16.6852C18.5397 17.2775 19.1147 17.748 19.7072 17.748H23.6452V19.9435H19.7072C19.0973 19.9435 18.5397 20.3965 18.5048 21.0063C18.4875 21.6512 18.9928 22.1912 19.6375 22.1912H23.6452V24.3693H19.7072C19.2542 24.3693 18.836 24.6482 18.6268 25.0315C20.3345 25.4497 22.0943 25.7807 23.889 25.9898C28.4717 26.5473 32.8103 26.3383 36.731 25.5018C38.909 24.0557 38.8742 20.7973 36.609 19.4207Z" fill="url(#paint2_linear_85_17)"/>
<path style="mix-blend-mode:screen" fill-rule="evenodd" clip-rule="evenodd" d="M36.609 25.589L15.8041 38.2043V35.2945C20.0905 34.6498 23.4187 31.043 23.6277 26.6345H19.6375C18.9928 26.6345 18.4875 26.0943 18.5048 25.4497C18.5397 24.8572 19.1147 24.3693 19.7072 24.3693H23.6452V22.1913H19.6375C18.9928 22.1913 18.4875 21.6512 18.5048 21.0063C18.5397 20.3965 19.0973 19.9435 19.7072 19.9435H23.6452V17.748H19.7072C19.1147 17.748 18.5397 17.2775 18.5048 16.6852C18.4875 16.0404 18.9928 15.5002 19.6375 15.5002H23.6277C23.558 14.176 23.2095 12.9214 22.6518 11.8062C23.0585 11.7598 23.465 11.7191 23.8717 11.6843L36.609 19.4207C38.9265 20.8147 38.9265 24.1777 36.609 25.589ZM0 41.3932V27.1572C1.39396 24.5262 3.27582 22.0693 5.541 19.9435H9.20015C9.84487 19.9435 10.3676 20.4662 10.3327 21.1283C10.2979 21.7382 9.75775 22.1913 9.14788 22.1913H5.20993V24.3693H9.14788C9.7229 24.3693 10.2979 24.8572 10.3327 25.4497C10.3676 26.0943 9.84487 26.6345 9.20015 26.6345H5.20993C5.45388 31.5133 9.47895 35.399 14.4275 35.399C14.5843 35.399 14.7412 35.3817 14.9154 35.3817L13.051 37.3855V39.8772L12.8942 39.9643H11.3259C9.8623 39.9643 8.66 41.1317 8.5903 42.578L5.4713 44.4772C3.06672 45.9235 0 44.1985 0 41.3932ZM8.10242 17.748C8.7994 17.2253 9.51962 16.7315 10.263 16.2669C10.2979 16.354 10.3327 16.4586 10.3327 16.5631C10.3676 17.2078 9.84487 17.748 9.20015 17.748H8.10242Z" fill="url(#paint3_linear_85_17)"/>
</g>
<path d="M54.2397 34L57.2582 15.8182H64.7688C66.1301 15.8182 67.2635 16.0816 68.169 16.6083C69.0746 17.1351 69.7167 17.8719 70.0955 18.8189C70.4743 19.7659 70.5601 20.8638 70.353 22.1126C70.1518 23.3732 69.699 24.4711 68.9947 25.4062C68.2963 26.3414 67.3967 27.0664 66.2958 27.5813C65.195 28.0962 63.9432 28.3537 62.5405 28.3537H57.9151L58.4922 24.8913H62.3097C62.9785 24.8913 63.5555 24.7759 64.0408 24.5451C64.5321 24.3143 64.9257 23.9917 65.2216 23.5774C65.5175 23.1631 65.7128 22.6748 65.8075 22.1126C65.8963 21.5503 65.8608 21.065 65.701 20.6566C65.5412 20.2423 65.2541 19.9227 64.8398 19.6978C64.4315 19.4729 63.8988 19.3604 63.2418 19.3604H61.0756L58.6342 34H54.2397ZM76.6119 34.2575C75.1737 34.2575 73.987 33.9615 73.0518 33.3697C72.1226 32.7778 71.4686 31.9522 71.0898 30.8928C70.7111 29.8333 70.6371 28.6023 70.8679 27.1996C71.0987 25.8028 71.5752 24.5777 72.2972 23.5241C73.0193 22.4706 73.9426 21.6509 75.0671 21.065C76.1916 20.479 77.4671 20.1861 78.8935 20.1861C80.3258 20.1861 81.5065 20.482 82.4357 21.0739C83.3709 21.6657 84.0278 22.4914 84.4066 23.5508C84.7913 24.6102 84.8683 25.8442 84.6374 27.2528C84.4066 28.6496 83.9272 29.8748 83.1992 30.9283C82.4712 31.9759 81.5479 32.7926 80.4293 33.3786C79.3107 33.9645 78.0382 34.2575 76.6119 34.2575ZM77.1001 30.9815C77.6328 30.9815 78.1093 30.8217 78.5295 30.5021C78.9556 30.1825 79.3137 29.7357 79.6037 29.1616C79.8937 28.5875 80.1009 27.9216 80.2251 27.1641C80.3494 26.4183 80.3613 25.7643 80.2607 25.2021C80.166 24.6339 79.9647 24.1929 79.657 23.8793C79.3492 23.5597 78.9319 23.3999 78.4052 23.3999C77.8725 23.3999 77.3931 23.5626 76.967 23.8881C76.5408 24.2077 76.1828 24.6546 75.8928 25.2287C75.6087 25.7969 75.4045 26.4627 75.2802 27.2262C75.1559 27.9719 75.1411 28.6259 75.2358 29.1882C75.3305 29.7505 75.5347 30.1914 75.8484 30.511C76.1621 30.8247 76.5793 30.9815 77.1001 30.9815ZM90.6966 34.1953C89.6904 34.1953 88.8174 33.9349 88.0776 33.4141C87.3378 32.8932 86.8081 32.112 86.4885 31.0703C86.1748 30.0286 86.1452 28.7354 86.3997 27.1907C86.666 25.5868 87.1395 24.2669 87.8201 23.2312C88.5008 22.1954 89.2939 21.429 90.1994 20.9318C91.1109 20.4347 92.0401 20.1861 92.987 20.1861C93.7032 20.1861 94.295 20.3104 94.7626 20.5589C95.2361 20.8016 95.606 21.1153 95.8723 21.5C96.1387 21.8847 96.3221 22.2842 96.4228 22.6985H96.5204L97.6657 15.8182H102.007L98.9885 34H94.6916L95.0556 31.7894H94.9224C94.6679 32.2096 94.3424 32.6032 93.9458 32.9702C93.5493 33.3371 93.0788 33.633 92.5343 33.858C91.9957 34.0829 91.3831 34.1953 90.6966 34.1953ZM92.7473 30.8129C93.2741 30.8129 93.7505 30.6649 94.1767 30.369C94.6028 30.0671 94.9609 29.6439 95.2509 29.0994C95.5468 28.5549 95.754 27.9157 95.8723 27.1818C95.9966 26.4361 96.0025 25.7939 95.8901 25.2553C95.7776 24.7167 95.5557 24.3024 95.2243 24.0124C94.8987 23.7224 94.4696 23.5774 93.937 23.5774C93.4043 23.5774 92.9279 23.7254 92.5076 24.0213C92.0874 24.3172 91.7382 24.7345 91.46 25.2731C91.1819 25.8117 90.9806 26.4479 90.8564 27.1818C90.738 27.9157 90.7261 28.5549 90.8208 29.0994C90.9215 29.6439 91.1316 30.0671 91.4512 30.369C91.7767 30.6649 92.2087 30.8129 92.7473 30.8129ZM108.079 34.2575C106.641 34.2575 105.454 33.9615 104.519 33.3697C103.59 32.7778 102.939 31.9551 102.566 30.9016C102.193 29.8422 102.125 28.6171 102.362 27.2262C102.587 25.8294 103.063 24.6043 103.791 23.5508C104.519 22.4914 105.449 21.6657 106.579 21.0739C107.709 20.482 108.988 20.1861 110.414 20.1861C111.675 20.1861 112.734 20.4139 113.593 20.8697C114.457 21.3254 115.081 21.9705 115.466 22.805C115.856 23.6336 115.972 24.6072 115.812 25.7259H111.755C111.79 25.0334 111.648 24.4889 111.329 24.0923C111.009 23.6899 110.544 23.4886 109.935 23.4886C109.42 23.4886 108.946 23.6307 108.514 23.9148C108.088 24.1929 107.724 24.6072 107.422 25.1577C107.126 25.7022 106.913 26.3769 106.783 27.1818C106.653 27.9867 106.644 28.6674 106.757 29.2237C106.875 29.7741 107.097 30.1914 107.422 30.4755C107.754 30.7537 108.174 30.8928 108.683 30.8928C109.086 30.8928 109.458 30.8069 109.802 30.6353C110.145 30.4637 110.444 30.2121 110.698 29.8807C110.953 29.5433 111.151 29.1349 111.293 28.6555H115.341C115.111 29.786 114.664 30.7714 114.001 31.6119C113.344 32.4464 112.512 33.0974 111.506 33.565C110.5 34.0266 109.358 34.2575 108.079 34.2575ZM116.666 34L118.939 20.3636H123.156L122.739 22.8494H122.881C123.277 21.9498 123.795 21.281 124.435 20.843C125.074 20.3991 125.766 20.1772 126.512 20.1772C126.713 20.1772 126.914 20.192 127.116 20.2216C127.323 20.2453 127.518 20.2808 127.702 20.3281L127.062 24.1101C126.861 24.0331 126.598 23.9769 126.272 23.9414C125.947 23.9 125.651 23.8793 125.384 23.8793C124.87 23.8793 124.39 23.9947 123.946 24.2255C123.508 24.4504 123.135 24.767 122.828 25.1754C122.526 25.5779 122.328 26.0514 122.233 26.5959L121.008 34H116.666ZM130.485 34.2308C129.621 34.2308 128.875 34.0858 128.248 33.7958C127.626 33.4999 127.17 33.053 126.88 32.4553C126.596 31.8575 126.528 31.1117 126.676 30.218C126.806 29.4605 127.046 28.8242 127.395 28.3093C127.75 27.7885 128.185 27.3653 128.7 27.0398C129.221 26.7143 129.801 26.4657 130.44 26.294C131.08 26.1224 131.748 26.007 132.447 25.9478C133.228 25.8768 133.861 25.7998 134.347 25.717C134.838 25.6341 135.205 25.5187 135.448 25.3707C135.69 25.2169 135.838 25.0038 135.891 24.7315V24.6871C135.962 24.2314 135.865 23.8793 135.598 23.6307C135.332 23.3821 134.933 23.2578 134.4 23.2578C133.832 23.2578 133.346 23.3821 132.944 23.6307C132.542 23.8793 132.26 24.2225 132.101 24.6605L128.123 24.5185C128.372 23.6899 128.798 22.95 129.402 22.299C130.005 21.642 130.772 21.1271 131.701 20.7543C132.636 20.3755 133.716 20.1861 134.941 20.1861C135.806 20.1861 136.587 20.2897 137.285 20.4968C137.984 20.698 138.573 20.994 139.052 21.3846C139.537 21.7693 139.883 22.2428 140.091 22.805C140.298 23.3673 140.342 24.0095 140.224 24.7315L138.67 34H134.586L134.906 32.1001H134.799C134.48 32.5618 134.104 32.9524 133.672 33.272C133.246 33.5916 132.766 33.8313 132.234 33.9911C131.701 34.1509 131.118 34.2308 130.485 34.2308ZM132.314 31.3899C132.769 31.3899 133.201 31.2952 133.61 31.1058C134.018 30.9164 134.361 30.656 134.64 30.3246C134.924 29.9872 135.104 29.5966 135.181 29.1527L135.385 27.8565C135.261 27.9216 135.104 27.9808 134.915 28.0341C134.725 28.0874 134.524 28.1377 134.311 28.185C134.098 28.2264 133.879 28.2679 133.654 28.3093C133.435 28.3448 133.225 28.3774 133.024 28.407C132.598 28.4721 132.228 28.5727 131.914 28.7088C131.6 28.8449 131.349 29.0225 131.16 29.2415C130.976 29.4545 130.864 29.709 130.822 30.005C130.751 30.4489 130.855 30.7921 131.133 31.0348C131.411 31.2715 131.805 31.3899 132.314 31.3899ZM151.366 20.3636L150.824 23.5597H142.053L142.594 20.3636H151.366ZM142.133 34L144.53 19.6712C144.701 18.6177 145.042 17.7447 145.551 17.0522C146.06 16.3538 146.696 15.833 147.459 15.4897C148.223 15.1405 149.063 14.9659 149.981 14.9659C150.59 14.9659 151.155 15.0133 151.676 15.108C152.197 15.1967 152.576 15.2766 152.813 15.3477L151.614 18.5259C151.454 18.4727 151.265 18.4283 151.046 18.3928C150.833 18.3572 150.623 18.3395 150.416 18.3395C149.912 18.3395 149.549 18.4519 149.324 18.6768C149.099 18.9018 148.951 19.2095 148.88 19.6001L146.474 34H142.133ZM161.158 20.3636L160.616 23.5597H152.014L152.555 20.3636H161.158ZM154.89 17.0966H159.231L157.136 29.712C157.095 29.9783 157.101 30.1944 157.154 30.3601C157.213 30.5199 157.32 30.6353 157.473 30.7063C157.633 30.7714 157.829 30.804 158.059 30.804C158.219 30.804 158.397 30.7862 158.592 30.7507C158.787 30.7152 158.935 30.6886 159.036 30.6708L159.178 33.8047C158.947 33.8698 158.636 33.9438 158.246 34.0266C157.861 34.1154 157.411 34.1716 156.896 34.1953C155.855 34.2367 154.994 34.1154 154.313 33.8313C153.638 33.5413 153.162 33.0915 152.884 32.4819C152.611 31.8723 152.558 31.1088 152.724 30.1914L154.89 17.0966Z" fill="white"/>
<defs>
<linearGradient id="paint0_linear_85_17" x1="27.5475" y1="-18.0262" x2="76.1333" y2="30.5597" gradientUnits="userSpaceOnUse">
<stop stop-color="#FD6D6D"/>
<stop offset="1" stop-color="#F97535"/>
</linearGradient>
<linearGradient id="paint1_linear_85_17" x1="-27.1367" y1="2.87387" x2="0.649568" y2="-23.4698" gradientUnits="userSpaceOnUse">
<stop stop-color="white"/>
<stop offset="0.987" stop-color="#D937BE"/>
<stop offset="1" stop-color="#D837BF"/>
</linearGradient>
<linearGradient id="paint2_linear_85_17" x1="24.096" y1="-12.8023" x2="38.0127" y2="30.7742" gradientUnits="userSpaceOnUse">
<stop stop-color="#FD6D6D"/>
<stop offset="0.5" stop-color="#71381D"/>
<stop offset="1" stop-color="#F97535"/>
</linearGradient>
<linearGradient id="paint3_linear_85_17" x1="10.2547" y1="-17.0227" x2="42.08" y2="22.051" gradientUnits="userSpaceOnUse">
<stop stop-color="#FD6D6D"/>
<stop offset="1"/>
</linearGradient>
<clipPath id="clip0_85_17">
<rect width="38.3333" height="45" fill="white"/>
</clipPath>
</defs>
</svg>
